<?xml version="1.0" standalone="no"?>
<!DOCTYPE svg PUBLIC "-//W3C//DTD SVG 20010904//EN"
 "http://www.w3.org/TR/2001/REC-SVG-20010904/DTD/svg10.dtd">
<svg version="1.0" xmlns="http://www.w3.org/2000/svg"
 width="512.000000pt" height="512.000000pt" viewBox="0 0 512.000000 512.000000"
 preserveAspectRatio="xMidYMid meet">
<metadata>
Created by potrace 1.14, written by Peter Selinger 2001-2017
</metadata>
<g transform="translate(0.000000,512.000000) scale(0.100000,-0.100000)"
fill="#000000" stroke="none">
<path d="M2650 4995 c-24 -60 -59 -241 -71 -359 -7 -76 -9 -185 -5 -293 l7
-173 -93 0 -93 0 -23 83 c-40 144 -94 241 -184 331 -43 43 -81 77 -83 74 -3
-3 9 -36 26 -74 17 -38 59 -143 94 -234 95 -248 110 -276 148 -289 17 -7 74
-17 124 -23 l93 -12 0 -116 c0 -120 -14 -202 -49 -282 l-19 -46 -64 -7 c-159
-17 -356 -76 -525 -155 -105 -49 -129 -66 -70 -49 149 44 800 72 1161 50 166
-10 369 -32 446 -47 40 -8 -76 52 -186 95 -120 48 -267 87 -386 102 l-87 11
-21 50 c-31 72 -50 186 -50 297 l0 97 101 13 c56 7 112 16 125 21 29 12 53 57
126 250 33 85 78 197 100 248 22 51 38 96 35 99 -4 3 -39 -27 -80 -68 -85 -86
-141 -185 -183 -326 l-28 -93 -90 0 -91 0 0 253 c-1 235 -3 261 -28 379 -15
70 -35 148 -46 175 l-19 48 -12 -30z"/>
<path d="M2265 3319 c-111 -8 -376 -40 -515 -62 l-75 -12 -3 -94 -3 -93 28 6
c61 13 235 36 373 48 228 20 1026 17 1255 -6 99 -9 212 -24 250 -32 39 -8 74
-14 78 -14 4 0 6 42 5 92 l-3 93 -80 12 c-344 54 -595 73 -930 71 -148 0 -319
-5 -380 -9z"/>
<path d="M2575 3050 c-64 -31 -87 -90 -101 -251 l-6 -76 -142 -17 c-77 -9
-184 -19 -237 -22 l-96 -7 -6 93 c-4 51 -7 131 -7 177 l0 83 -59 0 -58 0 -7
-61 c-3 -34 -6 -98 -6 -143 0 -122 1 -120 -97 -151 -94 -29 -157 -77 -169
-129 -7 -28 -6 -29 27 -22 76 14 196 18 216 8 20 -11 20 -11 -4 -159 -78 -485
-220 -937 -367 -1167 -20 -31 -37 -60 -39 -64 -1 -4 15 -32 36 -61 l39 -54 71
119 c234 395 350 745 379 1151 15 210 9 203 198 260 22 7 240 33 272 33 28 0
28 -1 28 -62 0 -276 -70 -1115 -115 -1377 -8 -47 -13 -86 -12 -87 3 -3 127
-24 143 -24 21 0 61 198 88 435 8 72 27 274 41 450 26 330 61 645 73 657 4 3
98 4 210 1 176 -5 202 -8 202 -22 0 -9 -14 -88 -30 -176 -76 -409 -143 -925
-156 -1215 l-6 -145 69 68 70 68 12 172 c25 357 77 647 183 1032 22 83 44 154
49 159 5 6 95 4 225 -3 119 -7 218 -10 220 -9 2 2 -9 105 -24 228 l-28 225
-38 -158 -38 -159 -151 7 c-84 4 -152 8 -153 9 0 0 7 79 18 175 10 96 17 175
15 176 -1 1 -32 5 -69 9 l-67 6 -6 -47 c-16 -123 -28 -192 -41 -240 l-14 -52
-88 -3 c-94 -3 -254 6 -316 17 l-38 8 6 141 c4 77 9 158 12 179 l6 37 -39 0
c-21 0 -56 -9 -78 -20z m-1 -386 c20 -20 21 -68 1 -84 -8 -7 -26 -12 -40 -12
-34 0 -55 19 -55 50 0 52 59 81 94 46z m-630 -30 c36 -35 9 -94 -43 -94 -34 0
-51 17 -51 51 0 34 24 59 55 59 13 0 31 -7 39 -16z m1270 0 c19 -18 21 -65 4
-82 -17 -17 -64 -15 -82 4 -9 8 -16 26 -16 39 0 13 7 31 16 39 8 9 26 16 39
16 13 0 31 -7 39 -16z"/>
<path d="M2179 3043 l-116 -4 -6 -97 c-4 -53 -7 -121 -7 -151 l0 -54 68 6 c37
4 120 9 184 13 137 8 123 -11 133 177 l7 117 -74 -2 c-40 -1 -125 -4 -189 -5z"/>
<path d="M2741 2954 c-7 -55 -15 -120 -18 -145 l-5 -46 173 -6 c95 -4 174 -6
175 -4 2 1 11 63 22 137 13 94 15 137 8 141 -6 4 -86 10 -177 14 l-166 7 -12
-98z"/>
<path d="M1754 3001 c-49 -30 -93 -91 -113 -156 -22 -69 -37 -175 -26 -175 4
0 43 10 86 21 l78 22 5 71 c14 187 16 236 9 236 -5 0 -22 -9 -39 -19z"/>
<path d="M3342 2888 c-7 -63 -12 -126 -12 -141 l0 -27 104 0 104 0 6 28 c3 15
10 59 16 97 6 39 13 82 16 96 5 26 4 27 -78 38 -46 7 -97 14 -114 17 l-31 6
-11 -114z"/>
<path d="M2195 2523 c-57 -7 -132 -33 -157 -53 -22 -17 -27 -30 -32 -97 -38
-430 -266 -1175 -414 -1352 -24 -30 -35 -35 -84 -39 -65 -5 -137 21 -162 60
-15 24 -13 31 55 179 228 495 379 989 354 1159 -7 45 -28 90 -44 90 -4 0 -21
-44 -36 -97 -195 -692 -484 -1337 -779 -1738 -74 -100 -74 -98 -14 -74 115 46
106 49 82 -30 -8 -29 -13 -55 -11 -57 2 -3 30 27 62 67 72 89 217 233 279 278
l48 33 -22 -43 c-108 -220 -249 -434 -409 -619 -159 -183 -32 -73 292 253 255
257 268 268 261 231 -17 -97 -89 -260 -156 -357 -24 -34 -48 -69 -53 -77 -11
-18 -6 -15 110 81 69 57 138 107 183 133 8 5 16 -2 22 -18 6 -14 15 -38 20
-52 l11 -27 25 24 c76 71 192 288 286 534 27 71 51 132 55 135 6 6 -3 -173
-13 -237 l-7 -42 67 -3 66 -3 -39 -80 c-46 -93 -150 -252 -218 -333 -27 -31
-41 -52 -33 -47 61 34 137 107 296 283 100 111 225 242 277 289 53 48 94 89
92 91 -2 2 -47 10 -100 17 -54 8 -98 15 -100 17 -2 2 8 82 21 178 51 379 87
791 100 1158 l7 192 -79 -1 c-43 -1 -92 -4 -109 -6z"/>
<path d="M2696 2478 c-3 -29 -13 -143 -21 -253 -34 -439 -91 -894 -140 -1120
-53 -243 -99 -373 -211 -597 -36 -72 -63 -133 -60 -135 14 -14 128 59 201 129
44 43 81 78 83 78 1 0 2 -130 2 -290 l0 -290 120 0 120 0 0 128 0 128 98 95
c54 52 155 147 225 212 131 122 189 190 251 293 40 66 45 88 19 80 -10 -2 -53
-7 -96 -11 l-79 -7 7 79 c16 182 42 275 208 758 31 88 65 209 76 268 24 126
37 309 27 390 l-7 57 -114 0 c-109 0 -113 -1 -118 -22 -12 -49 -151 -846 -188
-1083 -44 -277 -62 -332 -127 -383 -57 -45 -101 -66 -107 -50 -21 64 -27 114
-32 250 -6 165 3 289 38 508 19 123 135 774 146 818 l5 22 -160 0 -160 0 -6
-52z"/>
<path d="M3580 2353 c-1 -219 -40 -425 -147 -763 -95 -299 -153 -523 -153
-586 0 -23 89 28 136 78 105 110 170 254 225 493 24 108 49 297 49 380 0 76
11 165 19 165 4 0 33 -23 64 -51 31 -28 57 -45 57 -39 0 26 -63 199 -97 265
-44 86 -86 141 -124 161 l-29 15 0 -118z"/>
<path d="M1552 2312 c-44 -124 -68 -206 -106 -367 -39 -164 -60 -208 -140
-295 -39 -44 -107 -137 -150 -207 -44 -70 -102 -162 -129 -203 -28 -42 -40
-66 -27 -55 30 26 172 201 236 290 159 220 213 322 267 510 35 119 102 433 95
441 -2 2 -23 -49 -46 -114z"/>
</g>
</svg>
