<?xml version="1.0" standalone="no"?>
<!DOCTYPE svg PUBLIC "-//W3C//DTD SVG 20010904//EN"
 "http://www.w3.org/TR/2001/REC-SVG-20010904/DTD/svg10.dtd">
<svg version="1.0" xmlns="http://www.w3.org/2000/svg"
 width="196.000000pt" height="196.000000pt" viewBox="0 0 196.000000 196.000000"
 preserveAspectRatio="xMidYMid meet">
<metadata>
Created by potrace 1.14, written by Peter Selinger 2001-2017
</metadata>
<g transform="translate(0.000000,196.000000) scale(0.100000,-0.100000)"
fill="#000000" stroke="none">
<path d="M980 1883 c-7 -26 -14 -100 -16 -163 -4 -103 -6 -115 -23 -118 -14
-2 -23 10 -40 56 -22 57 -102 155 -100 122 0 -8 19 -62 43 -120 41 -104 42
-105 81 -114 22 -4 46 -10 53 -12 10 -3 12 -18 6 -61 -13 -106 -2 -98 -166
-136 -37 -9 -87 -25 -110 -36 l-43 -20 95 7 c123 9 389 9 510 0 l95 -8 -42 20
c-22 11 -70 27 -105 35 -143 35 -136 30 -153 87 -20 70 -19 105 3 112 36 12
72 63 111 161 22 54 38 102 35 105 -3 2 -24 -15 -48 -40 -32 -35 -45 -58 -55
-102 -10 -49 -16 -58 -34 -58 -21 0 -22 5 -23 84 -1 54 -9 107 -22 152 -31 99
-37 104 -52 47z"/>
<path d="M775 1264 c-66 -8 -126 -16 -132 -19 -7 -2 -13 -20 -13 -40 0 -35 1
-36 33 -31 191 32 366 34 558 6 75 -10 149 -22 163 -26 25 -6 26 -5 26 39 0
53 7 50 -177 72 -153 18 -295 18 -458 -1z"/>
<path d="M865 1173 c-96 -6 -96 -6 -93 -71 l3 -57 75 3 c41 2 78 7 82 10 3 4
9 33 13 65 7 52 6 57 -11 55 -11 -1 -41 -3 -69 -5z"/>
<path d="M988 1173 c-11 -3 -21 -24 -31 -66 -13 -61 -14 -62 -53 -68 -21 -4
-61 -9 -89 -11 l-50 -3 -3 68 c-3 63 -4 67 -26 67 -22 0 -24 -6 -31 -64 -6
-64 -7 -64 -58 -97 l-52 -34 33 -3 c25 -2 32 -7 28 -18 -3 -8 -20 -61 -37
-117 -69 -224 -169 -442 -254 -555 -45 -60 -49 -69 -28 -61 34 13 34 12 28
-18 -5 -23 7 -15 71 52 l77 80 -28 -52 c-15 -29 -59 -94 -97 -144 -38 -50 -67
-94 -64 -97 3 -3 58 47 121 112 63 64 115 112 115 106 0 -6 -18 -47 -40 -91
-44 -87 -36 -93 30 -25 l34 37 17 -22 c16 -21 16 -21 58 36 23 32 51 85 62
117 12 32 23 58 25 58 1 0 0 -16 -3 -35 -5 -33 -4 -35 21 -35 32 0 32 -6 1
-52 -13 -19 -38 -59 -55 -88 l-31 -52 30 24 c16 12 73 72 126 131 53 60 99
106 101 104 3 -2 -14 -54 -35 -116 -24 -65 -36 -111 -29 -111 6 0 35 24 64 53
l52 52 6 -35 c3 -19 6 -72 6 -117 l0 -83 45 0 45 0 0 48 c1 68 18 99 80 146
48 37 128 135 129 160 1 5 -13 6 -30 2 l-31 -6 4 68 c3 48 18 102 52 192 48
127 73 255 61 311 -6 26 -11 29 -48 29 -31 0 -38 3 -27 10 8 5 26 10 40 10 14
0 42 5 64 11 l39 11 -7 55 c-10 87 -21 94 -36 23 l-13 -62 -45 6 c-25 3 -51 6
-59 6 -11 0 -13 12 -7 61 5 47 4 63 -7 70 -28 18 -37 8 -48 -52 -6 -34 -12
-64 -15 -66 -2 -3 -41 -1 -86 3 l-82 7 6 68 c7 72 7 73 -36 62z m2 -164 c0
-12 -29 -24 -37 -16 -3 4 -3 13 0 21 6 16 37 11 37 -5z m240 -15 c0 -14 -21
-19 -33 -7 -9 9 13 34 24 27 5 -3 9 -12 9 -20z m-480 3 c0 -8 -3 -17 -7 -20
-9 -9 -34 13 -27 24 8 14 34 11 34 -4z m177 -144 c-5 -120 -24 -305 -42 -411
-5 -28 -3 -33 21 -42 33 -13 26 -23 -10 -14 -32 8 -32 11 -6 209 11 83 20 203
20 268 0 131 5 124 -80 106 -59 -13 -70 -28 -70 -97 0 -73 -15 -139 -56 -249
-52 -142 -92 -221 -117 -234 l-21 -12 18 28 c41 63 57 95 101 210 37 95 49
143 59 228 7 59 18 113 23 118 15 15 68 27 122 28 l44 1 -6 -137z m206 131
c46 -8 46 -2 6 -214 -16 -91 -33 -217 -36 -280 l-5 -115 26 26 c25 23 29 40
46 165 10 76 30 193 44 259 14 66 26 123 26 128 0 4 3 7 8 7 4 0 -5 -62 -20
-137 -15 -76 -35 -196 -44 -266 -17 -127 -38 -183 -71 -194 -18 -6 -28 42 -26
122 1 57 40 311 69 453 l7 32 -67 0 c-36 0 -66 -1 -66 -3 0 -19 -41 -473 -46
-504 -3 -23 -13 -50 -21 -60 -14 -17 -14 -17 -9 0 11 36 36 249 46 394 12 191
13 193 59 193 20 0 53 -3 74 -6z m-428 -96 c-9 -93 -56 -235 -121 -365 -34
-69 -47 -106 -40 -113 13 -13 3 -22 -17 -15 -12 5 -6 25 35 113 103 218 141
358 115 430 -7 18 -5 22 13 22 21 0 22 -3 15 -72z"/>
<path d="M1046 1148 c-3 -13 -8 -40 -11 -60 l-6 -38 75 0 75 0 6 38 c3 20 8
44 9 53 4 19 -30 29 -100 29 -37 0 -44 -3 -48 -22z"/>
<path d="M657 1139 c-22 -19 -30 -36 -34 -73 l-6 -49 29 7 c42 11 45 17 42 81
l-3 58 -28 -24z"/>
<path d="M1281 1118 c-4 -13 -11 -38 -14 -55 l-6 -33 49 0 c41 0 50 3 50 18 0
9 3 34 6 55 l7 37 -42 0 c-34 0 -43 -4 -50 -22z"/>
<path d="M1368 857 c-4 -74 -13 -122 -31 -172 -14 -39 -37 -104 -52 -145 -15
-41 -29 -100 -33 -129 l-5 -55 28 22 c71 56 110 146 131 302 7 58 14 109 14
114 0 5 9 1 20 -9 11 -10 22 -16 24 -14 2 2 -9 42 -25 88 -25 75 -40 100 -60
101 -3 0 -8 -46 -11 -103z"/>
<path d="M598 903 c-19 -47 -61 -224 -55 -230 9 -8 56 126 68 191 13 78 8 93
-13 39z"/>
<path d="M498 623 c-14 -16 -49 -64 -78 -108 -46 -70 -49 -76 -20 -50 40 37
142 185 127 185 -2 0 -15 -12 -29 -27z"/>
</g>
</svg>
