<svg viewBox="0 0 1600 1600" xmlns="http://www.w3.org/2000/svg" xml:space="preserve" style="fill-rule:evenodd;clip-rule:evenodd;stroke-linejoin:round;stroke-miterlimit:2;fill:#dddddd;"><path style="fill:none" d="M0 0h1600v1600H0z"/><path d="M807.654 297.028a2248.922 2248.922 0 0 0-2.137-25.189C793.131 134.291 827.202 35.298 831.69 29.574c4.934 5.261 41.684 104.717 29.298 242.265a2248.29 2248.29 0 0 0-2.136 25.189c23.595 1.16 55.482 2.205 58.973-.39 14.625-58.517 36.719-119.565 94.689-155.314-34.278 68.777-55.136 146.893-77.57 186.321-3.107 5.46-49.891 11.512-78.909 14.748-2.467 61.127 2.7 101.998 22.156 137.855 125.08 10.001 222.324 70.183 222.324 70.183-99.413-30.17-435.877-30.139-534.525 0 0 0 97.244-60.182 222.324-70.183 19.456-35.857 24.623-76.728 22.156-137.855-29.018-3.236-75.802-9.288-78.909-14.748-22.434-39.428-43.292-117.544-77.569-186.321 57.969 35.749 80.063 96.797 94.688 155.314 3.491 2.595 35.379 1.55 58.974.39ZM1143.48 645.065c-100.906-31.494-520.237-31.326-620.449 0l.168-58.835c100.392-17.484 203.048-28.689 310.057-27.83 106.102-.666 210.448 10.483 310.056 27.83l.168 58.835ZM795.503 1302.97h75.498v297.034h-75.498z"/><path d="M492.916 813.693s66.925-16.353 84.392-2.594c-9.711 71.778-49.176 317.323-136.405 433.263l25.14 34.367c93.879-145.795 143.573-287.763 142.984-440.252-.172-44.666 152.685-47.882 152.685-47.882 4.667.994-12.002 343.5-39.752 478.258l49.589 6.434c35.761-128.946 31.06-318.695 57.899-483.724l131.586 2.343c-35.291 182.395-59.338 349.31-61.359 485.897l43.941-42.706c3.434-144.552 31.385-286.531 74.71-426.896 49.946-1.53 92.419 4.054 141.102 5.907l-17.382-144.171-23.687 100.298-95.457-4.127 11.5-110.458-43.855-4.661s-7.929 89.072-19.586 106.931c-77.712 5.108-137.708-6.865-137.708-6.865l6.573-112.028c-63.599-6.253-63.872 41.663-68.239 108.088-50.456 6.237-100.941 12.669-150.791 14.752l-1.356-111.831-38.551.953c-1.79 34.666-4.714 103.455-4.714 103.455-69.061 13.527-80.806 34.414-83.259 57.249Zm499.435-42.801c10.156 0 18.401 8.245 18.401 18.401s-8.245 18.402-18.401 18.402-18.402-8.246-18.402-18.402 8.246-18.401 18.402-18.401Zm-397.184 0c10.156 0 18.402 8.245 18.402 18.401s-8.246 18.402-18.402 18.402-18.401-8.246-18.401-18.402 8.245-18.401 18.401-18.401Zm197.283-8.802c10.156 0 18.402 8.246 18.402 18.402s-8.246 18.401-18.402 18.401-18.401-8.245-18.401-18.401 8.245-18.402 18.401-18.402Z"/><path d="M857.183 1537.37c62.532-79.885 167.075-133.15 207.298-230.533l-61.167 6.569c4.496-188.861 117.694-276.689 97.201-485.247l-72.391-.638s-60.367 333.314-70.465 414.615c-6.468 52.08-61.41 70.763-61.41 70.763-35.861-111.791 9.022-279.779 47.358-502.747l-99.91-2.003c-36.216 506.906-72.469 544.048-140.009 679.056 59.566-22.396 99.95-71.296 129.565-135.078l23.93 185.243ZM644.237 651.372l118.946-4.877-5.835 89.859-117.905 7.402 4.794-92.384ZM860.341 645.737l-10.992 90.273 109.595 4.578 12.171-88.793-110.774-6.058ZM1047.76 662.368l70.621 10.202-12.237 78.939-67.065-.788 8.681-88.353ZM561.933 655.604l-5.326 96.316-53.615 14.675c3.115-64.009 23.458-99.87 58.941-110.991Z"/><path d="M532.463 828.008c-71.097 256.011-159.355 456.41-274.773 604.044l50.072-20.146-13.532 47.803c41.275-53.821 83.054-99.291 125.88-127.37-42.949 94.343-101.488 172.947-166.969 244.541 43.292-31.772 109.42-95.135 208.111-203.545-8.445 52.5-31.123 104.999-73.621 157.499 22.138-12.617 52.761-49.812 100.26-75.25l12.537 33.893c40.632-39.067 78.226-116.387 113.739-219.898 2.286 29.693 1.148 59.386-6.76 89.078l42.567 1.944c-23.927 55.955-57.207 103.859-95.408 147.527 57.575-27.47 117.22-133.465 216.651-211.369l-67.529-9.032c23.913-159.205 37.905-319.05 41.246-479.582 0 0-116.881-2.087-117.025 34.228-.386 97.434-83.103 408.966-140.78 448.94-28.331 6.481-53.594 3.099-71.527-23.863 127.883-267.671 157.373-432.285 116.861-439.442Z"/><path d="M502.992 828.008c-15.459 43.467-40.412 103.062-48.165 153.435-6.846 44.481-26.424 80.829-26.424 80.829-64.386 59.239-84.702 130.669-128.838 178.937 42.571-36.604 96.448-112.31 135.955-173.965 39.654-61.883 67.472-239.236 67.472-239.236ZM1198.52 970.296c-22.463-87.386-55.115-137.719-80.142-142.288 11.925 184.671-75.289 311.763-94.297 462.017 74.012-20.208 131.175-156.479 131.463-354.723 14.696 8.099 28.95 20.452 42.976 34.994Z"/></svg>