<svg viewBox="0 0 240 19" xmlns="http://www.w3.org/2000/svg" xml:space="preserve" style="fill-rule:evenodd;clip-rule:evenodd;stroke-linejoin:round;stroke-miterlimit:2"><path d="M12.779 1.268c.826.265.708.973.029 3.007l-.649 1.916-1.003-2.712c-.473-1.297-.65-1.976.147-2.241.266-.088.443-.236.443-.501 0-.354-.59-.531-1.033-.531-.443 0-1.269.118-1.712.118-.442 0-1.446-.118-1.889-.118-.324 0-.649.177-.649.531 0 .265.207.442.472.501.768.177 1.092 1.533 1.594 2.889l2.302 6.132-.207.619c-.56 1.681-.885 1.769-1.092 1.769-.206 0-.413-.147-.885-1.444L5.755 3.479c-.472-1.297-.826-2.005-.089-2.241a.627.627 0 0 0 .443-.589c0-.354-.59-.443-1.033-.443-.443 0-1.416.118-1.859.118-.443 0-1.741-.118-2.184-.118C.59.206 0 .383 0 .737c0 .265.207.413.472.501 1.859.619 2.155 1.533 2.656 2.889l4.486 11.91c.443 1.209.885 2.034 1.122 2.034.383 0 1.446-2.653 1.947-4.009l.768-2.152 1.564 4.127c.443 1.209.885 2.034 1.121 2.034.384 0 1.446-2.653 1.948-4.009l3.66-10.082c.472-1.327 1.003-2.3 2.361-2.742.265-.088.501-.236.501-.501 0-.354-.295-.531-.737-.531-.443 0-1.388.118-1.83.118-.443 0-1.21-.118-1.653-.118-.443 0-.708.177-.708.531 0 .265.236.442.501.531.738.235.709.973.03 3.007l-2.184 6.603c-.561 1.681-.885 1.769-1.092 1.769-.206 0-.413-.147-.885-1.444l-1.181-3.155 1.476-4.068c.472-1.327 1.003-2.3 2.361-2.742.265-.088.502-.236.502-.501 0-.354-.296-.531-.738-.531-.443 0-1.446.118-1.889.118-.443 0-1.121-.118-1.564-.118-.443 0-.738.177-.738.531 0 .265.236.442.502.531ZM25.912 10.141c0-2.388 1.298-5.011 3.689-5.011 2.803 0 4.604 2.889 4.604 5.689 0 2.683-1.24 5.808-3.926 5.808-3.01 0-4.367-3.479-4.367-6.486Zm4.367-6.368c-4.131 0-7.378 3.45-7.378 7.577 0 3.597 2.804 6.574 6.405 6.574 4.367 0 7.938-3.479 7.938-7.842 0-3.685-3.276-6.309-6.965-6.309ZM44.239 9.552v-2.83c0-.629.442-.973 1.033-.973 1.328 0 2.538.921 2.538 2.24 0 1.386-1.181 2.624-2.597 2.624-.679 0-.974-.442-.974-1.061Zm2.066-5.336c-1.092 0-2.273.206-3.306.206-1.062 0-1.534-.147-2.685-.147-.443 0-1.033.177-1.033.53 0 .266.206.531.472.619 1.682.472 1.948.384 1.948 2.064v6.338c0 1.091.088 1.916-.915 2.359-.649.294-1.623.56-1.623 1.002 0 .295.649.472.974.501.206 0 1.357-.177 2.744-.177 1.417 0 2.774.177 2.981.177.325-.029.944-.206.944-.501 0-.442-.974-.708-1.623-1.002-1.003-.443-.944-1.268-.944-2.359v-.855c0-.855.088-.737.442-.737.709 0 1.153.514 1.624 1.003 1.412 1.465 2.27 2.975 3.689 4.392.793.792 2.036 1.091 2.656 1.091 1.387 0 2.066-.354 2.066-1.032 0-.471-.685-.512-1.771-.973-1.494-.633-2.788-3.399-4.958-5.218-.226-.189-.169-.263.059-.324 1.539-.412 2.538-1.71 2.538-3.331 0-2.211-2.066-3.626-4.279-3.626ZM60.175 17.511c1.948 0 4.715.177 6.7.177 1.463 0 2.154-3.095 2.154-3.449 0-.737-.295-1.091-.649-1.091-.295 0-.613.337-.738.649-.285.711-1.033 1.887-1.859 1.887h-2.538c-1.269 0-1.594-.266-1.594-1.858V7.488c0-1.68.325-1.592 2.007-2.064a.664.664 0 0 0 .442-.619c0-.353-.59-.53-1.033-.53-1.003 0-1.623.147-2.656.147-1.062 0-1.534-.147-2.685-.147-.443 0-1.033.177-1.033.53 0 .266.206.531.472.619 1.682.472 1.948.384 1.948 2.064v6.338c0 1.091.088 1.916-.915 2.359-.649.294-1.623.56-1.623 1.002 0 .295.649.472.974.501.206 0 1.239-.177 2.626-.177ZM75.905 7.37c0-1.415.413-1.828 2.214-1.828 2.715 0 5.017 2.123 5.017 4.953s-1.387 5.719-4.368 5.719c-1.918 0-2.863-.987-2.863-2.196V7.37Zm-1.357 10.141c.708 0 2.98.118 3.866.118 4.338 0 7.673-3.419 7.673-7.989 0-3.832-4.338-5.66-8.175-5.66-2.302 0-4.133.295-5.932.295-.443 0-1.033.177-1.033.53 0 .266.207.531.472.619 1.683.472 1.948.384 1.948 2.064v6.338c0 1.091.089 1.916-.915 2.359-.649.294-1.623.56-1.623 1.002 0 .295.649.472.974.501.207 0 1.357-.177 2.745-.177ZM92.993 11.704c0-.413.324-.59.885-.59 1.594 0 2.833.56 2.833 2.417 0 1.445-.767 2.506-1.918 2.506-1.092 0-1.8-.707-1.8-1.798v-2.535Zm0-4.511c0-1.385.383-1.474 1.092-1.474 1.121 0 2.361.612 2.361 1.592 0 2.093-1.328 2.447-2.774 2.447-.62 0-.679-.501-.679-.855v-1.71Zm-1.358 10.318c1.417 0 2.273.177 3.129.177 2.36 0 4.869-1.739 4.869-4.098 0-1.65-1.32-3.093-3.01-3.36-.321-.051-.403-.278-.118-.354 1.385-.371 2.449-1.268 2.449-2.712 0-2.683-3.04-3.125-5.961-3.125-1.24 0-2.774.236-3.925.236-.443 0-1.033.177-1.033.53 0 .266.206.531.472.619 1.682.472 1.948.384 1.948 2.064v6.338c0 1.091.088 1.916-.915 2.359-.649.294-1.623.56-1.623 1.002 0 .295.649.472.974.501.206 0 1.357-.177 2.744-.177ZM106.48 9.552v-2.83c0-.629.443-.973 1.033-.973 1.328 0 2.538.921 2.538 2.24 0 1.386-1.181 2.624-2.597 2.624-.679 0-.974-.442-.974-1.061Zm2.066-5.336c-1.092 0-2.273.206-3.306.206-1.062 0-1.534-.147-2.685-.147-.443 0-1.033.177-1.033.53 0 .266.206.531.472.619 1.682.472 1.948.384 1.948 2.064v6.338c0 1.091.088 1.916-.915 2.359-.649.294-1.623.56-1.623 1.002 0 .295.649.472.974.501.206 0 1.357-.177 2.744-.177 1.417 0 2.774.177 2.981.177.325-.029.944-.206.944-.501 0-.442-.973-.708-1.623-1.002-1.003-.443-.944-1.268-.944-2.359v-.855c0-.855.088-.737.443-.737.708 0 1.152.514 1.623 1.003 1.412 1.465 2.27 2.975 3.689 4.392.793.792 2.036 1.091 2.656 1.091 1.387 0 2.066-.354 2.066-1.032 0-.471-.684-.512-1.771-.973-1.494-.633-2.788-3.399-4.958-5.218-.226-.189-.169-.263.059-.324 1.539-.412 2.538-1.71 2.538-3.331 0-2.211-2.066-3.626-4.279-3.626ZM122.534 17.511c2.096 0 4.191.177 6.168.177.502 0 1.299-2.063 1.299-3.036 0-.737-.295-1.091-.649-1.091-.295 0-.62.324-.738.649-.295.707-.62 1.621-1.21 1.621h-2.479c-.738 0-1.033-.59-1.033-1.268v-2.004c0-1.062.148-.973.531-.973h1.358c1.357 0 1.328 1.297 1.889 1.297.413 0 .413-.678.413-2.005 0-1.356-.059-1.975-.354-1.975-.591 0-.591 1.179-1.889 1.179h-1.476c-.442 0-.472-.589-.472-1.179V6.368c0-.56.059-.708.708-.708h2.066c.443 0 .826.295.915.531.266.707.59 1.002.974 1.002s.502-.589.502-.914c0-.294-.089-1.179-.177-1.444-.178-.59-.148-.56-.62-.56-1.24 0-4.575.118-5.607.118-1.063 0-1.535-.118-2.686-.118-.443 0-1.033.177-1.033.53 0 .266.207.531.472.619 1.682.472 1.948.384 1.948 2.064v6.338c0 1.091.089 1.916-.915 2.359-.649.294-1.623.56-1.623 1.002 0 .295.62.501.974.501.59 0 2.007-.177 2.744-.177ZM137.113 11.32l1.417-3.301c.151-.353.354-.354.472-.03l.974 3.214c.148.383.236.471-.177.471h-2.272c-.443 0-.561-.029-.414-.354Zm8.323 4.894c-.885-.383-1.505-1.15-1.623-1.533l-3.011-9.905c-.236-.796-.649-1.15-.826-1.15-.324 0-1.095.84-1.962 1.607-.183.161-.256.461-.369.722l-3.866 8.962c-.237.56-.591.914-1.387 1.179-.679.207-1.624.649-1.624 1.091 0 .295.65.472.974.501.207 0 1.063-.177 2.45-.177 1.416 0 2.213.177 2.42.177.324-.029.944-.206.944-.501 0-.442-.531-.708-1.269-.943-.472-.148-.59-.56-.354-1.268l.443-1.356c.137-.42.354-.649.826-.649h2.863c.472 0 .767.295.856.737l.472 1.563c.088.383-.384.914-.62 1.002-.738.265-1.062.472-1.062.914 0 .295.649.472.973.501.207 0 .945-.177 2.332-.177 1.416 0 2.154.177 2.361.177.324-.029.944-.206.944-.501 0-.442-.236-.708-.885-.973ZM157.92 7.252c.934-1.14 1.947-1.356 3.63-1.828a.664.664 0 0 0 .442-.619c0-.353-.59-.53-1.033-.53-.708 0-1.623.147-2.361.147-.531 0-1.298-.147-1.593-.147-.443 0-1.033.177-1.033.53 0 .266.22.536.472.619.56.186.731.644.413 1.032l-1.977 2.418c-.411.502-1.24 1.562-1.889 1.562-.278 0-.325-.029-.325-.531V7.488c0-1.68-.029-1.592 1.653-2.064a.664.664 0 0 0 .443-.619c0-.353-.591-.53-1.033-.53-1.004 0-1.269.147-2.302.147-1.063 0-1.535-.147-2.686-.147-.442 0-1.033.177-1.033.53 0 .266.207.531.473.619 1.682.472 1.947.384 1.947 2.064v6.338c0 1.091.089 1.916-.915 2.359-.649.294-1.623.56-1.623 1.002 0 .295.65.472.974.501.207 0 1.358-.177 2.745-.177 1.416 0 2.036.177 2.243.177.324-.029.944-.206.944-.501 0-.442-.472-.708-1.121-1.002-.538-.244-.709-.767-.709-1.386v-2.447c0-.354.089-.442.502-.471.177 0 .899.093 1.594.972l1.889 2.388c.457.579.324.944.088 1.032-.738.265-1.062.472-1.062.914 0 .295.649.472.974.501.206 0 .944-.177 2.331-.177 1.417 0 2.154.177 2.361.177.325-.029.944-.206.944-.501 0-.442-.236-.708-.885-.973-.885-.383-1.584-.641-2.243-1.474l-2.981-3.773c-.622-.787-.628-.818-.236-1.297l1.978-2.418ZM167.275 17.511c2.095 0 4.191.177 6.168.177.502 0 1.298-2.063 1.298-3.036 0-.737-.295-1.091-.649-1.091-.295 0-.62.324-.738.649-.295.707-.619 1.621-1.21 1.621h-2.479c-.737 0-1.033-.59-1.033-1.268v-2.004c0-1.062.148-.973.532-.973h1.357c1.358 0 1.328 1.297 1.889 1.297.413 0 .413-.678.413-2.005 0-1.356-.059-1.975-.354-1.975-.59 0-.59 1.179-1.889 1.179h-1.475c-.443 0-.473-.589-.473-1.179V6.368c0-.56.059-.708.709-.708h2.066c.442 0 .826.295.914.531.266.707.591 1.002.974 1.002.384 0 .502-.589.502-.914 0-.294-.088-1.179-.177-1.444-.177-.59-.148-.56-.62-.56-1.239 0-4.574.118-5.607.118-1.063 0-1.535-.118-2.686-.118-.442 0-1.033.177-1.033.53 0 .266.207.531.473.619 1.682.472 1.947.384 1.947 2.064v6.338c0 1.091.089 1.916-.914 2.359-.65.294-1.624.56-1.624 1.002 0 .295.62.501.974.501.59 0 2.007-.177 2.745-.177ZM181.706 9.552v-2.83c0-.629.443-.973 1.033-.973 1.328 0 2.538.921 2.538 2.24 0 1.386-1.18 2.624-2.597 2.624-.679 0-.974-.442-.974-1.061Zm2.066-5.336c-1.092 0-2.272.206-3.305.206-1.063 0-1.535-.147-2.686-.147-.442 0-1.033.177-1.033.53 0 .266.207.531.472.619 1.683.472 1.948.384 1.948 2.064v6.338c0 1.091.089 1.916-.915 2.359-.649.294-1.623.56-1.623 1.002 0 .295.65.472.974.501.207 0 1.358-.177 2.745-.177 1.416 0 2.774.177 2.98.177.325-.029.945-.206.945-.501 0-.442-.974-.708-1.623-1.002-1.004-.443-.945-1.268-.945-2.359v-.855c0-.855.089-.737.443-.737.708 0 1.153.514 1.623 1.003 1.412 1.465 2.27 2.975 3.689 4.392.793.792 2.037 1.091 2.656 1.091 1.387 0 2.066-.354 2.066-1.032 0-.471-.684-.512-1.771-.973-1.494-.633-2.787-3.399-4.958-5.218-.226-.189-.169-.263.059-.324 1.54-.412 2.538-1.71 2.538-3.331 0-2.211-2.065-3.626-4.279-3.626ZM199.443 3.773c-2.449 0-5.017 1.357-5.017 3.803 0 1.799 1.033 3.007 2.656 3.803 1.446.737 3.128 1.563 3.128 3.155 0 1.061-.767 1.975-1.829 1.975-2.155 0-2.981-2.329-3.689-2.329-.295 0-.443.177-.443.501 0 .59.247 1.754.413 2.211.152.416 1.328 1.032 2.863 1.032 2.626 0 5.607-1.209 5.607-3.862 0-2.093-.649-3.066-3.128-4.333-1.741-.885-2.774-1.445-2.774-2.742 0-.885.767-1.504 1.652-1.504.974 0 1.766.393 2.125 1.003.276.468.62.53.827.53.442 0 .472-1.238.472-2.093 0-.236-.295-.501-.679-.619-.708-.177-1.121-.531-2.184-.531ZM210.569 2.27c0-.649 1.299-.943 2.568-.943 4.19 0 7.525 3.183 7.525 7.488 0 3.744-1.859 7.694-5.371 7.694-2.597 0-4.722-.678-4.722-3.803V2.27ZM214.111 0c-1.83 0-4.014.236-5.844.236-.885 0-1.446-.03-2.361-.03-.619 0-1.033.177-1.033.531 0 .265.207.413.473.501 1.682.501 2.42.501 2.42 2.182v10.406c0 1.091-.414 2.034-1.388 2.477-.649.294-1.623.442-1.623.884 0 .324.65.472.974.501.207 0 1.948-.177 3.306-.177 1.357 0 2.921.325 5.725.325 6.345 0 9.208-4.511 9.208-9.611 0-5.012-4.899-8.225-9.857-8.225ZM231.7 14.593V9.846c0-.619.443-.796.885-.796 2.981 0 4.132 1.15 4.132 3.627 0 2.004-1.21 3.802-3.423 3.802-.355 0-1.594-.471-1.594-1.886Zm0-12.529c0-.619.177-.796 1.357-.796 1.683 0 3.158 1.12 3.158 3.213 0 1.798-1.829 3.272-3.63 3.272-.531 0-.885-.236-.885-.825V2.064ZM230.283.206h-3.246c-.62 0-1.033.177-1.033.531 0 .265.207.413.472.501 1.682.472 2.42.501 2.42 2.182v10.406c0 1.091-.383 2.034-1.387 2.477-.649.294-1.623.442-1.623.884 0 .295.649.472.974.501.207 0 1.948-.147 3.335-.147.561 0 2.184.147 2.803.147 3.926 0 6.995-1.739 6.995-5.365 0-2.388-1.771-3.803-3.984-4.127-.236-.03-.266-.325.059-.443 1.682-.56 2.685-2.152 2.685-4.245 0-2.24-2.449-3.449-4.751-3.449-1.328 0-3.01.147-3.719.147Z" style="fill:#231f20;fill-rule:nonzero"/><path d="m30.062 9.423 1.321 1.32-1.321 1.32-1.321-1.32 1.321-1.32Z" style="fill:#231f20"/></svg>